<svg width="12" height="8" viewBox="0 0 12 8" fill="none" xmlns="http://www.w3.org/2000/svg">
<path fill-rule="evenodd" clip-rule="evenodd" d="M8.08189 0.709227C8.3042 0.481548 8.66825 0.477929 8.89502 0.701143L11.8275 3.58774C11.9378 3.69632 12 3.84489 12 3.99999C12 4.15509 11.9378 4.30366 11.8275 4.41224L8.89502 7.29884C8.66825 7.52205 8.3042 7.51843 8.08189 7.29075C7.85957 7.06307 7.86318 6.69755 8.08994 6.47434L10.6036 3.99999L8.08994 1.52564C7.86318 1.30243 7.85957 0.936905 8.08189 0.709227Z" fill="#828282"/>
<path fill-rule="evenodd" clip-rule="evenodd" d="M0 3.93808C0 3.63062 0.254723 3.38138 0.56894 3.38138H10.0702C10.3845 3.38138 10.6392 3.63062 10.6392 3.93808C10.6392 4.24554 10.3845 4.49478 10.0702 4.49478H0.56894C0.254723 4.49478 0 4.24554 0 3.93808Z" fill="#828282"/>
</svg>
