<svg width="17" height="16" viewBox="0 0 17 16" fill="none" xmlns="http://www.w3.org/2000/svg">
<path fill-rule="evenodd" clip-rule="evenodd" d="M10.0301 6.2741C10.0301 7.97532 8.56463 9.54674 6.51507 9.54674C4.46551 9.54674 3 7.97532 3 6.2741C3 4.57288 4.46551 3.00146 6.51507 3.00146C8.56463 3.00146 10.0301 4.57288 10.0301 6.2741ZM10.0077 11.5702C8.99828 12.1885 7.80012 12.5467 6.51507 12.5467C2.9169 12.5467 0 9.73839 0 6.2741C0 2.80982 2.9169 0.00146484 6.51507 0.00146484C10.1132 0.00146484 13.0301 2.80982 13.0301 6.2741C13.0301 7.43457 12.7028 8.52143 12.1322 9.45378L16.4016 13.5809L14.2447 15.666L10.0077 11.5702Z" fill="black"/>
</svg>
